<?xml version="1.0" encoding="utf-8"?>
<!-- Generator: Adobe Illustrator 19.1.0, SVG Export Plug-In . SVG Version: 6.00 Build 0)  -->
<svg version="1.1" id="Layer_1" xmlns="http://www.w3.org/2000/svg" xmlns:xlink="http://www.w3.org/1999/xlink" x="0px" y="0px"
	 viewBox="0 0 1920 746" style="enable-background:new 0 0 1920 746;" xml:space="preserve">
<style type="text/css">
	.st0{fill:#FFFFFF;}
	.st1{fill:#020202;}
	.st2{fill:#00B287;}
</style>
<g>
	<rect class="st0" width="1920" height="746"/>
	<g id="Layer_1_1_">
		<path class="st1" d="M1013,507.9h33c-0.4-9.8-5.3-17.3-15.5-17.3C1021,490.6,1014.8,497.8,1013,507.9 M1032.8,548.9
			c-19.4,0-32.7-13-32.7-33.8c0-20.8,12.4-35.3,30.3-35.3c18.2,0,27.7,13.1,27.7,32.5v5.7h-45.5c1.4,13.4,10,19.9,21.9,19.9
			c7.4,0,12.7-1.7,18.5-6h0.4v11C1048,547.3,1040.9,548.9,1032.8,548.9 M969.2,508.9c9.5,3,20,6.9,20,19.6
			c0,13.6-11.2,20.5-25.5,20.5c-8.7,0-17.5-2.1-22.4-6v-11.9h0.6c5.6,5.1,13.9,7.4,21.7,7.4c7.1,0,13.4-2.7,13.4-8.4
			c0-5.9-5.3-7.2-15.7-10.7c-9.3-3-19.7-6.5-19.7-19c0-12.8,10.5-20.3,24-20.3c7.8,0,14.8,1.7,20.3,5.4v12.1h-0.5
			c-5.4-4.4-11.8-6.9-19.6-6.9s-12.2,3.5-12.2,8.1C953.6,503.9,958.5,505.4,969.2,508.9 M912.1,481.4h12.5v66.3h-12.5V481.4z
			 M918.2,454.5c4.4,0,8,3.5,8,7.8c0,4.4-3.6,7.8-8,7.8c-4.2,0-8-3.5-8-7.8C910.2,457.9,914,454.5,918.2,454.5 M877.2,491.5
			c2.9-7.1,9.2-11.3,16.4-11.3c2.9,0,5.4,0.5,6.5,1.1v12.4h-0.5c-1.8-0.9-4.8-1.4-7.8-1.4c-6.8,0-12.5,4.5-14.6,12.1v43.2h-12.5
			v-66.3h12.5L877.2,491.5L877.2,491.5z M817.6,537.7c12.4,0,19.6-9.8,19.6-23.2c0-13.3-7.2-23.2-19.6-23.2
			c-6.8,0-13.1,4.1-16.4,10.5v25.5C804.5,533.8,810.8,537.7,817.6,537.7 M819.7,479.9c19.7,0,30.3,16.1,30.3,34.5
			c0,18.4-10.5,34.5-30.3,34.5c-8.1,0-15.1-4.2-18.5-8.7v32.9h-12.5v-91.8h12.5v7.5C804.6,484.1,811.5,479.9,819.7,479.9
			 M754.3,491.5c2.9-7.1,9.2-11.3,16.4-11.3c2.9,0,5.4,0.5,6.5,1.1v12.4h-0.5c-1.8-0.9-4.8-1.4-7.8-1.4c-6.8,0-12.5,4.5-14.6,12.1
			v43.2h-12.5v-66.3h12.5L754.3,491.5L754.3,491.5z M682,507.9h33c-0.4-9.8-5.3-17.3-15.5-17.3C689.9,490.6,683.8,497.8,682,507.9
			 M701.7,548.9c-19.4,0-32.7-13-32.7-33.8c0-20.8,12.4-35.3,30.3-35.3c18.2,0,27.7,13.1,27.7,32.5v5.7h-45.5
			c1.4,13.4,9.9,19.9,21.8,19.9c7.4,0,12.7-1.7,18.5-6h0.5v11C716.9,547.3,709.8,548.9,701.7,548.9 M644,481.4h17v10.7h-17v35.7
			c0,7.5,3.9,10.1,11,10.1c2,0,4.1-0.3,5.6-0.9h0.4v10.7c-1.8,0.8-4.4,1.4-7.8,1.4c-15.5,0-21.7-7.1-21.7-20v-36.9H620v-10.7h11.5
			v-17.6H644V481.4z M587.2,479.9c14.9,0,23.2,9.8,23.2,25.9v41.7h-12.5v-41.4c0-8.6-4.4-14.8-13.9-14.8c-7.8,0-14.5,5-16.7,12.1
			v44.1h-12.5v-66.3h12.5v9.6C571.2,484.8,577.8,479.9,587.2,479.9 M480.9,453.4h58.2v11.4H494v28.8h40.8v11.2H494v31.3h45.1v11.4
			h-58.2L480.9,453.4L480.9,453.4z M1419.2,399.9v-21.5c-3.3-4.8-7.7-6.9-12.7-6.9c-8.7,0-14.6,6.3-14.6,17.8s5.9,17.6,14.6,17.6
			C1411.6,406.9,1415.9,404.8,1419.2,399.9 M1419.8,415.8c-4.2,5.4-10.8,8.4-19.9,8.4c-17.2,0-28.2-15.7-28.2-35s11-35.1,28.2-35.1
			c8.7,0,15.1,2.7,19.3,7.7v-33.3h19.9v94.2h-19.3V415.8z M1343.7,366.4c3.6-7.4,8.9-11.6,16.3-11.6c2.7,0,5.4,0.6,6.5,1.2v19h-0.7
			c-2.3-0.9-5-1.5-8.7-1.5c-6.2,0-11,3.6-12.7,10.6v38.6h-19.9v-67.1h19.3v10.8H1343.7z M1290.4,401.6v-5.7c-3-1.7-6.9-2.3-11-2.3
			c-6.5,0-10.4,2.4-10.4,7.8c0,5.6,3.9,8,9.8,8C1284.4,409.4,1288.6,406.5,1290.4,401.6 M1291,416c-4.4,5.3-10.8,7.8-17.8,7.8
			c-13.1,0-23.8-8-23.8-22.2c0-13.1,10.7-21.8,26.1-21.8c4.8,0,9.8,0.8,14.9,2.3v-1.2c0-7.2-4.1-10.4-14.8-10.4
			c-6.8,0-13.3,2-18.8,5.1h-0.7v-16c5.1-3,14.2-5.6,23.1-5.6c20.2,0,31.2,9.6,31.2,26.5v42H1291V416z M1203.1,392.3v30.4h-19.9
			v-94.2h19.9v53.7l20-26.5h22.6v0.8l-24.1,30.4l24.1,35.1v0.8H1223L1203.1,392.3z M1117,389.3c0-21.5,15.2-35.1,35.1-35.1
			c7.1,0,13.7,1.5,18.7,5.1v17h-0.8c-4.4-3.3-9.5-5.3-15.4-5.3c-10,0-17.5,6.8-17.5,18.2c0,11.5,7.5,18.1,17.5,18.1
			c5.9,0,11-2,15.4-5.3h0.8v17c-5,3.6-11.6,5.1-18.7,5.1C1132.2,424.3,1117,410.8,1117,389.3 M1087,401.6v-5.7
			c-3-1.7-6.9-2.3-11-2.3c-6.5,0-10.4,2.4-10.4,7.8c0,5.6,3.9,8,9.8,8C1080.9,409.4,1085.2,406.5,1087,401.6 M1087.6,416
			c-4.4,5.3-10.8,7.8-17.8,7.8c-13.1,0-23.8-8-23.8-22.2c0-13.1,10.7-21.8,26.1-21.8c4.8,0,9.8,0.8,14.9,2.3v-1.2
			c0-7.2-4.1-10.4-14.8-10.4c-6.8,0-13.3,2-18.8,5.1h-0.8v-16c5.1-3,14.2-5.6,23.1-5.6c20.2,0,31.2,9.6,31.2,26.5v42h-19.3
			L1087.6,416L1087.6,416z M1007.1,374.8c10.4,0,15.4-5.9,15.4-14.3c0-8.7-5-14.6-15.4-14.6h-13v28.9H1007.1z M1043.3,360.4
			c0,20.5-13.7,31.7-34.5,31.7h-14.6v30.6h-20.5v-94.2h35.1C1029.6,328.5,1043.3,339.6,1043.3,360.4 M925.3,355.6h14.8v16h-14.8
			v27.3c0,5.9,2.3,8.6,8.3,8.6c1.7,0,3.8-0.1,6-0.9h0.5v15.7c-2.6,0.9-6.5,2-12.2,2c-16.1,0-22.5-7.4-22.5-24.4v-28.2H880V399
			c0,5.9,2.3,8.6,8.3,8.6c1.7,0,3.8-0.1,6-0.9h0.5v15.7c-2.6,0.9-6.5,2-12.2,2c-16.1,0-22.5-7.4-22.5-24.4v-28.2h-10.2v-16h10.2
			v-18.4H880v18.4h25.5v-18.4h19.9v18.2H925.3z M800.9,381.4h24.4c-0.5-6.9-3.3-11.8-11.3-11.8C807.9,369.6,802.7,372.3,800.9,381.4
			 M816.4,424.3c-20.8,0-35-13.1-35-34.7c0-21,13.9-35.4,32.2-35.4c20,0,30,13.4,30,33.5v7.5h-42.8c2.4,10.4,10.5,13.1,18.7,13.1
			c7.1,0,12.2-1.5,18.5-5.4h0.8v15.5C833.4,422.3,825.7,424.3,816.4,424.3 M768.3,424.3c-16.3,0-22.9-6.5-22.9-21.7v-74h19.9v72.6
			c0,4.7,1.8,6.3,5.7,6.3c1.4,0,3.3-0.4,4.5-0.9h0.3v16.4C774.2,423.6,771.3,424.3,768.3,424.3 M685.9,383.3l-10.5,39.5h-17.9
			L637,356.4v-0.8h19.6l11.2,39.6l10.6-39.6h16l10.7,39.6l11.3-39.6H735v0.8l-20.5,66.3h-17.9L685.9,383.3z M589.6,381.4H614
			c-0.4-6.9-3.3-11.8-11.3-11.8C596.7,369.6,591.4,372.3,589.6,381.4 M605.1,424.3c-20.8,0-35-13.1-35-34.7
			c0-21,13.9-35.4,32.2-35.4c20,0,30,13.4,30,33.5v7.5h-42.8c2.4,10.4,10.5,13.1,18.7,13.1c7.1,0,12.2-1.5,18.5-5.4h0.8v15.5
			C622.1,422.3,614.5,424.3,605.1,424.3 M501.4,422.8h-20.5v-94.2h20.5v37.2H538v-37.2h20.5v94.2H538v-39h-36.6V422.8z"/>
		<path class="st2" d="M788.3,246.5H501.4v-53.2h286.9V246.5z M480.9,267h327.9v-94.2H480.9V267z"/>
	</g>
</g>
</svg>
