<?xml version="1.0" encoding="utf-8"?>
<!-- Generator: Adobe Illustrator 19.0.0, SVG Export Plug-In . SVG Version: 6.00 Build 0)  -->
<svg version="1.1" id="Layer_1" xmlns="http://www.w3.org/2000/svg" xmlns:xlink="http://www.w3.org/1999/xlink" x="0px" y="0px"
	 viewBox="990.8 -55.7 942.2 644.2" style="enable-background:new 990.8 -55.7 942.2 644.2;" xml:space="preserve">
<style type="text/css">
	.st0{fill:#FFFFFF;}
	.st1{fill:#01A982;}
	.st2{fill:#EB0A8C;}
	.st3{fill:#ED008C;}
</style>
<g>
	<rect x="991.6" y="-54.8" class="st0" width="942.2" height="644.2"/>
</g>
<g>
	<path d="M1568.2,196.1V191c-0.8-1.1-1.8-1.7-3-1.7c-1.9,0-3.2,1.5-3.2,4.2c0,2.7,1.3,4.2,3.2,4.2
		C1566.4,197.8,1567.5,197.2,1568.2,196.1 M1568.4,198.8c-1,1.5-2.5,2.4-4.4,2.4c-4,0-6.4-3.2-6.4-7.7c0-4.5,2.5-7.7,6.4-7.7
		c1.8,0,3.2,0.8,4.2,2.1v-6.6h4.2v19.5h-4V198.8z M1550.8,189.2c0.8-2.2,2.5-3.1,4.1-3.1c0.6,0,1,0.1,1.2,0.2v4h-0.4
		c-0.4-0.2-0.9-0.3-1.5-0.3c-1.7,0-2.9,0.8-3.2,2.5v8.4h-4.2v-14.6h4L1550.8,189.2L1550.8,189.2z M1538.8,196.3v-1.9
		c-0.7-0.2-1.7-0.3-2.4-0.3c-1.7,0-2.6,0.6-2.6,2c0,1.3,0.9,1.9,2.2,1.9C1537.2,198,1538.4,197.4,1538.8,196.3 M1538.9,198.7
		c-0.9,1.6-2.5,2.4-4.4,2.4c-2.7,0-5-1.6-5-4.5c0-2.9,2-4.6,5.7-4.6c1.2,0,2.4,0.1,3.6,0.3v-0.8c0-1.6-1.1-2.3-3.3-2.3
		c-1.6,0-2.9,0.3-4.1,0.9h-0.4V187c1.1-0.6,3.1-1.1,5.1-1.1c4.6,0,7,2.1,7,5.7v9.3h-4.1L1538.9,198.7L1538.9,198.7z M1519.1,193.7
		v7.1h-4.2v-19.5h4.2v11.1l1-1.5l3.9-4.8h4.5v0.5l-5.4,6.1l5.4,7.5v0.5h-4.8l-3.6-5.3L1519.1,193.7z M1499.8,193.6
		c0-4.8,3.3-7.7,7.7-7.7c1.8,0,3.1,0.4,4.1,1v3.7h-0.4c-0.9-0.7-1.9-1-3.2-1c-2.1,0-3.8,1.5-3.8,4s1.7,3.9,3.8,3.9
		c1.3,0,2.3-0.3,3.2-1h0.4v3.7c-0.9,0.6-2.3,1-4.1,1C1503.2,201.2,1499.8,198.3,1499.8,193.6 M1492.6,196.3v-1.9
		c-0.7-0.2-1.7-0.3-2.4-0.3c-1.7,0-2.6,0.6-2.6,2c0,1.3,0.9,1.9,2.2,1.9C1491,198,1492.2,197.4,1492.6,196.3 M1492.7,198.7
		c-0.9,1.6-2.5,2.4-4.4,2.4c-2.7,0-5-1.6-5-4.5c0-2.9,2-4.6,5.7-4.6c1.2,0,2.4,0.1,3.6,0.3v-0.8c0-1.6-1.1-2.3-3.3-2.3
		c-1.6,0-2.9,0.3-4.1,0.9h-0.5V187c1.1-0.6,3.1-1.1,5.1-1.1c4.6,0,7,2.1,7,5.7v9.3h-4.1V198.7z M1474.4,184.9h-3v6.3h3
		c2.2,0,3.2-1.3,3.2-3.1C1477.6,186.2,1476.6,184.9,1474.4,184.9 M1471.4,194.9v6h-4.2v-19.5h7.6c4.3,0,7.1,2.4,7.1,6.8
		c0,4.3-2.8,6.7-7.1,6.7L1471.4,194.9L1471.4,194.9z M1451.2,195.5v-5.8h-6.2v5.6c0,1.5,0.5,2.2,1.9,2.2c0.4,0,0.9-0.1,1.2-0.2h0.4
		v3.5c-0.5,0.2-1.4,0.4-2.6,0.4c-3.6,0-5.1-1.7-5.1-5.7v-5.8h-2.6v-3.5h2.6v-3.5h4.2v3.5h6.2v-3.5h4.2v3.5h3.5v3.5h-3.5v5.6
		c0,1.5,0.5,2.2,1.9,2.2l1.2-0.2h0.4v3.5c-0.5,0.2-1.4,0.4-2.6,0.4C1452.7,201.2,1451.2,199.5,1451.2,195.5 M1426.8,192.2h5.8
		c-0.1-2.2-1.1-3.1-2.8-3.1C1428.4,189,1427.1,189.7,1426.8,192.2 M1430.7,201.2c-5.3,0-8.2-2.9-8.2-7.6c0-4.7,3-7.8,7.3-7.8
		c4.7,0,7,2.9,7,7.3v1.7h-10c0.3,2.4,2.2,3,4.1,3c1.7,0,3-0.2,4.4-1h0.4v3C1434.5,200.8,1432.5,201.2,1430.7,201.2 M1419.1,201.2
		c-3.1,0-4.7-1.4-4.7-4.8v-15.1h4.2v14.8c0,1,0.4,1.4,1.4,1.4l1.1-0.2h0v3.5C1420.8,201,1419.9,201.2,1419.1,201.2 M1393.2,200.8
		l-3-14.1v-0.5h3.9l1.7,8.9l0.4,2.8l0.5-2.8l2-8.9h4.5l2,8.9l0.6,2.8l0.5-2.8l1.7-8.9h3.7v0.5l-3.1,14.1h-5.4l-1.8-7.8l-0.5-2.9
		l-0.5,2.9l-1.7,7.8H1393.2z M1378.2,192.2h5.8c-0.1-2.2-1.1-3.1-2.8-3.1C1379.8,189,1378.5,189.7,1378.2,192.2 M1382.1,201.2
		c-5.3,0-8.2-2.9-8.2-7.6c0-4.7,3-7.8,7.3-7.8c4.7,0,7,2.9,7,7.3v1.7h-10c0.3,2.4,2.2,3,4.1,3c1.7,0,3-0.2,4.4-1h0.4v3
		C1385.9,200.8,1383.9,201.2,1382.1,201.2 M1370.6,181.4v19.5h-4.3v-8h-7.9v8h-4.2v-19.5h4.2v7.7h7.9v-7.7H1370.6z M1477.6,220.4
		h7.9c-0.1-2.6-1.5-4-3.8-4S1478,218,1477.6,220.4 M1482.6,229c-4.8,0-7.8-2.8-7.8-7.3s2.8-7.7,6.9-7.7c4.2,0,6.4,2.8,6.4,7.1v1.4
		h-10.6c0.4,2.8,2.4,4.1,5.1,4.1c1.7,0,2.9-0.3,4.2-1.2h0.3v2.3C1485.9,228.6,1484.2,229,1482.6,229 M1461.4,225.2h0.2
		c1.2,1,2.9,1.5,4.6,1.5c1.6,0,2.9-0.6,2.9-1.9s-1.1-1.6-3.4-2.3c-2-0.7-4.3-1.4-4.3-4.1c0-2.8,2.3-4.4,5.3-4.4
		c1.7,0,3.2,0.3,4.4,1.2v2.5h-0.3c-1.1-0.8-2.5-1.4-4.1-1.4s-2.6,0.7-2.6,1.8c0,1.2,1,1.5,3.3,2.2c2.1,0.7,4.4,1.5,4.4,4.2
		c0,2.9-2.5,4.5-5.6,4.5c-1.9,0-3.8-0.5-4.9-1.3L1461.4,225.2L1461.4,225.2z M1457.1,228.7h-2.6v-14.3h2.6V228.7z M1455.8,212.9
		c-1,0-1.9-0.8-1.9-1.9s0.9-1.8,1.9-1.8s1.9,0.8,1.9,1.8C1457.7,212,1456.9,212.9,1455.8,212.9 M1451.3,217
		c-0.3-0.2-0.9-0.3-1.5-0.3c-1.7,0-3,1.2-3.6,3.1v8.8h-2.7v-14.3h2.5v3.1c0.8-2.4,2.4-3.3,4.1-3.3c0.6,0,1.2,0.1,1.4,0.2v2.7H1451.3
		z M1436.8,221.3c0-2.9-1.6-4.9-4.5-4.9c-1.7,0-3.1,0.9-3.9,2.5v4.9c0.8,1.5,2.2,2.5,3.9,2.5
		C1435.2,226.4,1436.8,224.3,1436.8,221.3 M1428.4,226.3v7.6h-2.7v-19.6h2.5v2.5c0.8-1.5,2.5-2.8,4.7-2.8c4.3,0,6.6,3.4,6.6,7.3
		c0,4-2.3,7.5-6.6,7.5C1430.8,228.8,1429.2,227.7,1428.4,226.3 M1422.8,217c-0.4-0.2-0.9-0.3-1.5-0.3c-1.7,0-3,1.2-3.6,3.1v8.8h-2.6
		v-14.3h2.5v3.1c0.8-2.4,2.4-3.3,4.1-3.3c0.6,0,1.2,0.1,1.4,0.2v2.7H1422.8z M1400.7,220.4h7.9c-0.1-2.6-1.5-4-3.8-4
		C1402.6,216.3,1401.1,218,1400.7,220.4 M1405.8,229c-4.8,0-7.8-2.8-7.8-7.3s2.8-7.7,6.9-7.7c4.2,0,6.4,2.8,6.4,7.1v1.4h-10.6
		c0.4,2.8,2.4,4.1,5.1,4.1c1.7,0,2.9-0.3,4.2-1.2h0.3v2.3C1409,228.6,1407.3,229,1405.8,229 M1394.1,229c-3.6,0-5-1.6-5-4.4v-7.9h-3
		v-2.4h3v-3.7h2.6v3.7h4.1v2.4h-4.1v7.7c0,1.7,1,2.2,2.6,2.2c0.4,0,0.9,0,1.2-0.2h0.2v2.4C1395.4,228.8,1394.8,229,1394.1,229
		 M1373.3,228.7h-2.6v-14.3h2.5v2.7c1-1.8,2.7-3,4.8-3c3.3,0,5.3,2.2,5.3,5.4v9.2h-2.6v-9.1c0-1.9-1-3-3.2-3c-1.9,0-3.5,1.3-4.1,3
		L1373.3,228.7L1373.3,228.7z M1366.6,209.2v2.4h-9.6v5.9h8.7v2.3h-8.7v6.5h9.6v2.4h-12.4v-19.5L1366.6,209.2L1366.6,209.2z"/>
</g>
<g>
	<path class="st1" d="M1354.3,168.7h67.8v-19.5h-67.8V168.7z M1358.5,153.4h59.3v11h-59.3V153.4z"/>
</g>
<g>
	<polygon class="st2" points="1353,233.8 1353,280 1571.2,280 1571.2,233.8 1568.1,233.8 1568.1,277 1356.2,277 1356.2,233.8 	"/>
</g>
<g>
	<g>
		<path class="st3" d="M1340.4,329.8c0-10.9,5.3-18.5,13.2-18.5c7.9,0,13.2,7.6,13.2,18.5s-5.3,18.5-13.2,18.5
			C1345.6,348.3,1340.4,340.7,1340.4,329.8z M1343.3,329.8c0,9.2,3.9,15.8,10.3,15.8c6.4,0,10.3-6.5,10.3-15.8
			c0-9.2-3.9-15.8-10.3-15.8C1347.2,314,1343.3,320.5,1343.3,329.8z"/>
	</g>
	<g>
		<path class="st3" d="M1372.8,343.4c1.2,0,2.2,1,2.2,2.3c0,1.2-1,2.2-2.2,2.2c-1.2,0-2.2-1-2.2-2.2
			C1370.6,344.4,1371.6,343.4,1372.8,343.4z"/>
	</g>
	<g>
		<path class="st3" d="M1402.1,336.9c0,7-5.4,11.4-12.3,11.4c-4.2,0-7.2-1.2-9.4-2.9v-3.5c2.6,2.6,5.8,3.7,9.3,3.7
			c5.3,0,9.5-3.4,9.5-8.7c0-5.2-4.3-8.6-9.5-8.6c-3.6,0-5.4,0.8-7.6,1.8v-18.3h18v2.8h-15.4v12c1.2-0.5,3-0.9,5.2-0.9
			C1396.6,325.7,1402.1,330,1402.1,336.9z"/>
	</g>
	<g>
		<path class="st3" d="M1428.6,323.4c0,2.6-0.6,5-2.6,8.5l-9,15.8h-3.1l8.1-14c-1.3,1-3.3,1.7-5.3,1.7c-6.7,0-11.8-5.2-11.8-12
			c0-6.8,5.2-12.1,11.9-12.1C1423.3,311.3,1428.6,316.5,1428.6,323.4z M1416.7,332.8c5.1,0,9.1-4.1,9.1-9.4c0-5.3-4-9.4-9.1-9.4
			c-5.2,0-9.2,4.1-9.2,9.4C1407.5,328.7,1411.5,332.8,1416.7,332.8z"/>
	</g>
	<g>
		<path class="st3" d="M1435.9,315.6c-1-0.2-1.8-0.9-1.8-2.1c0-1.2,0.9-2.2,2.2-2.2c1.3,0,2.2,0.9,2.2,2.3c0,0.9-0.3,1.8-0.8,2.6
			l-2.8,5.1h-2.1L1435.9,315.6z M1443.1,315.6c-1-0.2-1.8-0.9-1.8-2.1c0-1.2,0.9-2.2,2.2-2.2c1.3,0,2.2,0.9,2.2,2.3
			c0,0.9-0.3,1.8-0.8,2.6l-2.8,5.1h-2.1L1443.1,315.6z"/>
	</g>
	<g>
		<path class="st3" d="M1458,309.7h2.8l-14.5,43h-2.8L1458,309.7z"/>
		<path class="st3" d="M1470.7,347.8h-3l15.3-33.2h-19.6v-2.8h23.6v0.2L1470.7,347.8z"/>
	</g>
	<g>
		<path class="st3" d="M1497.5,347.8h-3l15.3-33.2h-19.6v-2.8h23.6v0.2L1497.5,347.8z"/>
	</g>
	<g>
		<path class="st3" d="M1535.1,357.7h-2.9v-35.9h2.9v3.9c1.5-2.2,4.5-4.4,8.1-4.4c7.7,0,11.4,6.4,11.4,13.5
			c0,7.2-3.7,13.5-11.4,13.5c-3.6,0-6.6-2.2-8.1-4.4V357.7z M1535.1,340.4c1.8,3.3,4.6,5.2,7.8,5.2c5.5,0,8.7-4.6,8.7-10.8
			c0-6.3-3.2-10.8-8.7-10.8c-3.2,0-6,1.8-7.8,5.2V340.4z"/>
	</g>
	<g>
		<path class="st3" d="M1569.8,334.4l9.6,13.4h-3.2l-8-11.1l-8.1,11.1h-3.1l9.6-13.2l-9.2-12.8h3.2l7.6,10.6l7.7-10.6h3.1
			L1569.8,334.4z"/>
	</g>
</g>
</svg>
