<?xml version="1.0" encoding="utf-8"?>
<!-- Generator: Adobe Illustrator 19.1.0, SVG Export Plug-In . SVG Version: 6.00 Build 0)  -->
<svg version="1.1" id="Layer_1" xmlns="http://www.w3.org/2000/svg" xmlns:xlink="http://www.w3.org/1999/xlink" x="0px" y="0px"
	 viewBox="0 0 1920 1006" style="enable-background:new 0 0 1920 1006;" xml:space="preserve">
<style type="text/css">
	.st0{fill:#FFFFFF;}
	.st1{fill:#FBD6E2;}
	.st2{clip-path:url(#SVGID_2_);}
	.st3{fill:#020202;}
	.st4{fill:#00B287;}
	.st5{fill:#E8168C;}
	.st6{fill:#EB188C;}
	.st7{fill:#E91B8C;}
</style>
<g>
	<rect y="-0.7" class="st0" width="1920" height="1006"/>
	<g>
		<g>
			<path class="st1" d="M1346.6,646.2H573.9V323.3h772.6L1346.6,646.2L1346.6,646.2z M1346.6,161.5H573.9H414v161.8v322.9V808h160
				h772.6h161.8V646.2V323.3V161.5H1346.6z"/>
		</g>
		<g>
			<g>
				<defs>
					<rect id="SVGID_1_" y="-0.6" width="1920" height="1007.3"/>
				</defs>
				<clipPath id="SVGID_2_">
					<use xlink:href="#SVGID_1_"  style="overflow:visible;"/>
				</clipPath>
				<g class="st2">
					<path class="st3" d="M1002.7,591h26.5c-0.4-7.9-4.2-13.9-12.5-13.9C1009.2,577.1,1004.2,582.8,1002.7,591 M1018.6,624
						c-15.6,0-26.3-10.4-26.3-27.2c0-16.7,9.9-28.4,24.4-28.4c14.7,0,22.3,10.6,22.3,26.2v4.6h-36.6c1.1,10.8,8,16,17.6,16
						c5.9,0,10.2-1.3,14.9-4.8h0.4v8.8C1030.8,622.7,1025.1,624,1018.6,624 M967.4,591.7c7.6,2.4,16.1,5.6,16.1,15.8
						c0,10.9-9,16.5-20.5,16.5c-7,0-14.1-1.7-18.1-4.9v-9.6h0.5c4.5,4.1,11.1,5.9,17.5,5.9c5.7,0,10.8-2.2,10.8-6.8
						c0-4.7-4.2-5.8-12.6-8.6c-7.5-2.4-15.9-5.2-15.9-15.3c0-10.3,8.5-16.4,19.3-16.4c6.3,0,11.9,1.3,16.4,4.4v9.7h-0.4
						c-4.4-3.5-9.5-5.6-15.8-5.6s-9.8,2.8-9.8,6.5C955,587.7,958.8,589,967.4,591.7 M921.5,569.6h10.1v53.3h-10.1V569.6z M926.5,548
						c3.5,0,6.4,2.8,6.4,6.3s-2.9,6.3-6.4,6.3c-3.4,0-6.4-2.8-6.4-6.3C920,550.8,923.1,548,926.5,548 M893.5,577.8
						c2.3-5.7,7.4-9.1,13.2-9.1c2.3,0,4.4,0.4,5.2,0.8v9.9h-0.4c-1.5-0.7-3.9-1.1-6.3-1.1c-5.5,0-10.1,3.6-11.8,9.7v34.8h-10.1
						v-53.3h10.1L893.5,577.8L893.5,577.8z M845.5,614.9c9.9,0,15.8-7.9,15.8-18.7c0-10.7-5.8-18.7-15.8-18.7
						c-5.5,0-10.5,3.3-13.2,8.5v20.5C834.9,611.7,840,614.9,845.5,614.9 M847.2,568.5c15.9,0,24.4,13,24.4,27.8s-8.5,27.8-24.4,27.8
						c-6.5,0-12.1-3.4-14.9-7v26.3h-10.1v-73.8h10.1v6.1C835.1,571.9,840.6,568.5,847.2,568.5 M794.6,577.8
						c2.3-5.7,7.4-9.1,13.2-9.1c2.3,0,4.4,0.4,5.2,0.8v9.9h-0.4c-1.5-0.7-3.9-1.1-6.3-1.1c-5.5,0-10.1,3.6-11.8,9.7v34.8h-10.1
						v-53.3h10.1L794.6,577.8L794.6,577.8z M736.4,591h26.5c-0.4-7.9-4.2-13.9-12.5-13.9C742.8,577.1,737.8,582.8,736.4,591
						 M752.3,624c-15.6,0-26.3-10.4-26.3-27.2c0-16.7,9.9-28.4,24.4-28.4c14.7,0,22.3,10.6,22.3,26.2v4.6H736c1.1,10.8,8,16,17.6,16
						c5.9,0,10.2-1.3,14.9-4.8h0.4v8.8C764.5,622.7,758.8,624,752.3,624 M705.8,569.6h13.7v8.6h-13.7v28.7c0,6.1,3.2,8.1,8.8,8.1
						c1.6,0,3.3-0.2,4.5-0.7h0.4v8.6c-1.5,0.6-3.5,1.1-6.3,1.1c-12.5,0-17.5-5.7-17.5-16.1v-29.7h-9.2v-8.6h9.2v-14.2h10.1V569.6z
						 M660.1,568.5c12,0,18.7,7.9,18.7,20.9V623h-10.1v-33.3c0-6.9-3.5-11.9-11.2-11.9c-6.3,0-11.6,4-13.5,9.7V623h-10.1v-53.3H644
						v7.8C647.3,572.4,652.6,568.5,660.1,568.5 M574.7,547.1h46.8v9.2h-36.3v23.1h32.9v9h-32.9v25.2h36.3v9.2h-46.8V547.1z
						 M1329.5,504.1v-17.3c-2.7-3.9-6.2-5.6-10.2-5.6c-7,0-11.8,5.1-11.8,14.3c0,9.2,4.7,14.2,11.8,14.2
						C1323.3,509.7,1326.8,508,1329.5,504.1 M1330,516.8c-3.4,4.4-8.7,6.8-16,6.8c-13.8,0-22.7-12.6-22.7-28.1s8.8-28.2,22.7-28.2
						c7,0,12.1,2.2,15.5,6.2v-26.8h16v75.7H1330V516.8z M1268.8,477.2c2.9-5.9,7.1-9.3,13.1-9.3c2.2,0,4.4,0.5,5.2,1v15.3h-0.6
						c-1.8-0.7-4-1.2-7-1.2c-5,0-8.8,2.9-10.2,8.5v31h-16v-53.9h15.5V477.2z M1225.9,505.4v-4.6c-2.4-1.3-5.6-1.8-8.9-1.8
						c-5.2,0-8.4,1.9-8.4,6.3c0,4.5,3.2,6.4,7.9,6.4C1221,511.7,1224.4,509.4,1225.9,505.4 M1226.4,517.1c-3.5,4.2-8.7,6.3-14.3,6.3
						c-10.5,0-19.1-6.4-19.1-17.8c0-10.6,8.6-17.6,21-17.6c3.9,0,7.9,0.6,12,1.8v-1c0-5.8-3.3-8.4-11.9-8.4
						c-5.5,0-10.7,1.6-15.2,4.1h-0.6v-12.8c4.1-2.4,11.4-4.5,18.6-4.5c16.3,0,25.1,7.8,25.1,21.3v33.9h-15.5L1226.4,517.1
						L1226.4,517.1z M1155.7,497.9v24.5h-16v-75.8h16v43.2l16.1-21.3h18.2v0.6l-19.4,24.5l19.4,28.3v0.6h-18.3L1155.7,497.9z
						 M1086.3,495.5c0-17.3,12.2-28.2,28.2-28.2c5.7,0,11,1.2,15,4.1v13.7h-0.6c-3.5-2.7-7.6-4.2-12.4-4.2c-8,0-14.1,5.5-14.1,14.7
						s6.1,14.5,14.1,14.5c4.7,0,8.8-1.6,12.4-4.2h0.6v13.7c-4,2.9-9.3,4.1-15,4.1C1098.6,523.6,1086.3,512.8,1086.3,495.5
						 M1062.2,505.4v-4.6c-2.4-1.3-5.6-1.8-8.8-1.8c-5.2,0-8.4,1.9-8.4,6.3c0,4.5,3.2,6.4,7.9,6.4
						C1057.4,511.7,1060.8,509.4,1062.2,505.4 M1062.7,517.1c-3.5,4.2-8.7,6.3-14.3,6.3c-10.6,0-19.2-6.4-19.2-17.8
						c0-10.6,8.6-17.6,21-17.6c3.9,0,7.9,0.6,12,1.8v-1c0-5.8-3.3-8.4-11.9-8.4c-5.5,0-10.7,1.6-15.2,4.1h-0.6v-12.8
						c4.1-2.4,11.4-4.5,18.5-4.5c16.2,0,25.1,7.8,25.1,21.3v33.9h-15.5L1062.7,517.1L1062.7,517.1z M998,483.8
						c8.4,0,12.4-4.7,12.4-11.5c0-7-4-11.8-12.4-11.8h-10.4v23.3H998z M1027.1,472.3c0,16.5-11,25.5-27.8,25.5h-11.8v24.6H971v-75.8
						h28.2C1016,446.6,1027.1,455.6,1027.1,472.3 M932.2,468.5h11.9v12.8h-11.9v21.9c0,4.7,1.8,6.9,6.7,6.9c1.3,0,3-0.1,4.9-0.7h0.4
						V522c-2.1,0.7-5.2,1.6-9.8,1.6c-13,0-18.1-5.9-18.1-19.6v-22.7h-20.5v21.9c0,4.7,1.8,6.9,6.7,6.9c1.3,0,3-0.1,4.8-0.7h0.4V522
						c-2.1,0.7-5.2,1.6-9.8,1.6c-13,0-18.1-5.9-18.1-19.6v-22.7h-8.2v-12.8h8.2v-14.8h16v14.8h20.5v-14.8h16v14.8H932.2z M832,489.2
						h19.6c-0.4-5.6-2.7-9.5-9.1-9.5C837.7,479.7,833.5,481.8,832,489.2 M844.5,523.6c-16.7,0-28.1-10.6-28.1-27.9
						c0-16.8,11.2-28.5,25.9-28.5c16.1,0,24.1,10.8,24.1,26.9v6.1H832c1.9,8.4,8.5,10.5,15,10.5c5.7,0,9.8-1.2,14.9-4.4h0.6v12.5
						C858.2,522,852,523.6,844.5,523.6 M805.8,523.6c-13.1,0-18.4-5.2-18.4-17.5v-59.5h16V505c0,3.8,1.5,5.1,4.6,5.1
						c1.1,0,2.7-0.4,3.6-0.7h0.2v13.2C810.6,523.1,808.3,523.6,805.8,523.6 M739.5,490.6l-8.5,31.8h-14.4l-16.5-53.3v-0.6h15.8
						l9,31.9l8.5-31.9h12.8l8.6,31.9l9.1-31.9h15.2v0.6l-16.5,53.3h-14.4L739.5,490.6z M662.1,489.2h19.6c-0.4-5.6-2.7-9.5-9.1-9.5
						C667.8,479.7,663.5,481.8,662.1,489.2 M674.6,523.6c-16.7,0-28.1-10.6-28.1-27.9c0-16.8,11.2-28.5,25.9-28.5
						c16.1,0,24.1,10.8,24.1,26.9v6.1h-34.4c1.9,8.4,8.5,10.5,15,10.5c5.7,0,9.8-1.2,14.9-4.4h0.6v12.5
						C688.3,522,682.1,523.6,674.6,523.6 M591.2,522.4h-16.5v-75.8h16.5v29.9h29.5v-29.9h16.5v75.8h-16.5V491h-29.5V522.4z"/>
				</g>
			</g>
		</g>
		<g>
			<path class="st4" d="M822,380.7H591.2v-42.8H822V380.7z M574.7,321.4v75.8l0,0h263.8v-75.8H574.7z"/>
		</g>
		<g>
			<path class="st5" d="M1347.5,807.1h-1.8V646.2H574.8v160.9H573V646.2H414v-1.8h159.1V323.3H414v-1.8h159.1V160.6h1.8v160.9h770.9
				V160.6h1.8v160.9h160.9v1.8h-160.9v321.1h160.9v1.8h-160.9v160.9H1347.5z M574.8,644.4h770.9V323.3H574.8V644.4z"/>
		</g>
		<g>
			<path class="st6" d="M1509.1,807.8h-1098v-648h1098V807.8z M412.9,806h1094.4V161.6H412.9V806z"/>
		</g>
		<g>
			<path class="st7" d="M1509,872.5h-163.5v-51.8h1.8v50h159.9v-50h1.8L1509,872.5L1509,872.5z M1573.7,646.6h-51.9v-1.8h50.1v-323
				h-50.1V320h50.1V161.4h-50.1v-1.8h51.9V646.6z"/>
		</g>
		<g>
			<path class="st6" d="M1613.8,474.3l12.4,17.8h-3.3l-10.8-15.4l-10.8,15.4h-3.2l12.4-17.7l-12-17.3h3.3l10.4,14.9l10.4-14.9h3.2
				L1613.8,474.3z"/>
		</g>
		<g>
			<path class="st6" d="M1375.4,915.4c0-10.7,5.1-18,12.9-18c7.7,0,12.8,7.3,12.8,18s-5.1,18-12.8,18
				C1380.5,933.4,1375.4,926,1375.4,915.4z M1378.3,915.4c0,9,3.8,15.3,10,15.3s10-6.3,10-15.3s-3.8-15.3-10-15.3
				C1382,900,1378.3,906.4,1378.3,915.4z"/>
		</g>
		<g>
			<path class="st6" d="M1407,928.6c1.2,0,2.2,1,2.2,2.2s-1,2.2-2.2,2.2c-1.1,0-2.1-1-2.1-2.2S1405.8,928.6,1407,928.6z"/>
		</g>
		<g>
			<path class="st6" d="M1435.5,922.3c0,6.8-5.3,11.1-12,11.1c-4.1,0-6.9-1.1-9.2-2.8v-3.4c2.5,2.5,5.6,3.6,9.1,3.6
				c5.1,0,9.3-3.3,9.3-8.4c0-5.1-4.2-8.4-9.3-8.4c-3.5,0-5.2,0.8-7.4,1.7v-17.8h17.6v2.7h-15v11.7c1.2-0.5,3-0.9,5-0.9
				C1430.2,911.4,1435.5,915.6,1435.5,922.3z"/>
		</g>
		<g>
			<path class="st6" d="M1467.6,915.1l12.4,17.8h-3.3l-10.8-15.4l-10.8,15.4h-3.2l12.4-17.7l-12-17.3h3.3l10.4,14.9l10.4-14.9h3.2
				L1467.6,915.1z"/>
		</g>
		<g>
			<path class="st6" d="M1599.2,235.3c0-10.7,5.1-18,12.9-18c7.7,0,12.8,7.3,12.8,18s-5.1,18-12.8,18
				C1604.3,253.3,1599.2,246,1599.2,235.3z M1602.1,235.3c0,9,3.8,15.3,10,15.3s10-6.3,10-15.3s-3.8-15.3-10-15.3
				C1605.9,220,1602.1,226.3,1602.1,235.3z"/>
		</g>
		<g>
			<path class="st6" d="M1630.8,248.6c1.2,0,2.2,1,2.2,2.2s-1,2.2-2.2,2.2c-1.1,0-2.1-1-2.1-2.2
				C1628.7,249.6,1629.7,248.6,1630.8,248.6z"/>
		</g>
		<g>
			<path class="st6" d="M1659.3,242.3c0,6.8-5.3,11.1-12,11.1c-4.1,0-6.9-1.1-9.2-2.8v-3.4c2.5,2.5,5.6,3.6,9.1,3.6
				c5.1,0,9.3-3.3,9.3-8.4c0-5.1-4.2-8.4-9.3-8.4c-3.5,0-5.2,0.8-7.4,1.7v-17.8h17.6v2.7h-15v11.7c1.2-0.5,3-0.9,5-0.9
				C1654,231.3,1659.3,235.6,1659.3,242.3z"/>
		</g>
		<g>
			<path class="st6" d="M1691.4,235l12.4,17.8h-3.3l-10.8-15.4l-10.8,15.4h-3.2l12.4-17.7l-12-17.3h3.3l10.4,14.9l10.4-14.9h3.2
				L1691.4,235z"/>
		</g>
	</g>
</g>
</svg>
